<mxfile host="app.diagrams.net" agent="Mozilla/5.0 (Windows NT 10.0; Win64; x64) AppleWebKit/537.36 (KHTML, like Gecko) Chrome/129.0.0.0 Safari/537.36" version="24.7.16">
  <diagram name="Page-1" id="YLb6v9ezmrfeidstlbZN">
    <mxGraphModel dx="1434" dy="780" grid="1" gridSize="10" guides="1" tooltips="1" connect="1" arrows="1" fold="1" page="1" pageScale="1" pageWidth="827" pageHeight="1169" math="0" shadow="0">
      <root>
        <mxCell id="0" />
        <mxCell id="1" parent="0" />
        <mxCell id="rbfPJ4H-Tg4PSfFwz5Jx-3" value="" style="edgeStyle=orthogonalEdgeStyle;rounded=0;orthogonalLoop=1;jettySize=auto;html=1;" edge="1" parent="1" target="rbfPJ4H-Tg4PSfFwz5Jx-2">
          <mxGeometry relative="1" as="geometry">
            <mxPoint x="420" y="160" as="sourcePoint" />
          </mxGeometry>
        </mxCell>
        <mxCell id="rbfPJ4H-Tg4PSfFwz5Jx-5" value="" style="edgeStyle=orthogonalEdgeStyle;rounded=0;orthogonalLoop=1;jettySize=auto;html=1;" edge="1" parent="1" source="rbfPJ4H-Tg4PSfFwz5Jx-2" target="rbfPJ4H-Tg4PSfFwz5Jx-4">
          <mxGeometry relative="1" as="geometry" />
        </mxCell>
        <mxCell id="rbfPJ4H-Tg4PSfFwz5Jx-2" value="OUTPUT &quot;What&#39;s your password?" style="shape=parallelogram;perimeter=parallelogramPerimeter;whiteSpace=wrap;html=1;fixedSize=1;strokeWidth=2;" vertex="1" parent="1">
          <mxGeometry x="360" y="200" width="120" height="80" as="geometry" />
        </mxCell>
        <mxCell id="rbfPJ4H-Tg4PSfFwz5Jx-7" value="" style="edgeStyle=orthogonalEdgeStyle;rounded=0;orthogonalLoop=1;jettySize=auto;html=1;" edge="1" parent="1" source="rbfPJ4H-Tg4PSfFwz5Jx-4" target="rbfPJ4H-Tg4PSfFwz5Jx-6">
          <mxGeometry relative="1" as="geometry" />
        </mxCell>
        <mxCell id="rbfPJ4H-Tg4PSfFwz5Jx-9" value="" style="edgeStyle=orthogonalEdgeStyle;rounded=0;orthogonalLoop=1;jettySize=auto;html=1;" edge="1" parent="1" source="rbfPJ4H-Tg4PSfFwz5Jx-4" target="rbfPJ4H-Tg4PSfFwz5Jx-8">
          <mxGeometry relative="1" as="geometry" />
        </mxCell>
        <mxCell id="rbfPJ4H-Tg4PSfFwz5Jx-4" value="Is password&lt;div&gt;correct?&lt;/div&gt;" style="rhombus;whiteSpace=wrap;html=1;strokeWidth=2;" vertex="1" parent="1">
          <mxGeometry x="360" y="320" width="120" height="80" as="geometry" />
        </mxCell>
        <mxCell id="rbfPJ4H-Tg4PSfFwz5Jx-6" value="Let user in" style="shape=parallelogram;perimeter=parallelogramPerimeter;whiteSpace=wrap;html=1;fixedSize=1;strokeWidth=2;" vertex="1" parent="1">
          <mxGeometry x="200" y="340" width="120" height="40" as="geometry" />
        </mxCell>
        <mxCell id="rbfPJ4H-Tg4PSfFwz5Jx-14" value="" style="edgeStyle=orthogonalEdgeStyle;rounded=0;orthogonalLoop=1;jettySize=auto;html=1;" edge="1" parent="1" source="rbfPJ4H-Tg4PSfFwz5Jx-8" target="rbfPJ4H-Tg4PSfFwz5Jx-13">
          <mxGeometry relative="1" as="geometry" />
        </mxCell>
        <mxCell id="rbfPJ4H-Tg4PSfFwz5Jx-8" value="tries ← tries + 1" style="shape=parallelogram;perimeter=parallelogramPerimeter;whiteSpace=wrap;html=1;fixedSize=1;strokeWidth=2;" vertex="1" parent="1">
          <mxGeometry x="360" y="440" width="120" height="40" as="geometry" />
        </mxCell>
        <mxCell id="rbfPJ4H-Tg4PSfFwz5Jx-16" value="" style="edgeStyle=orthogonalEdgeStyle;rounded=0;orthogonalLoop=1;jettySize=auto;html=1;" edge="1" parent="1" source="rbfPJ4H-Tg4PSfFwz5Jx-13" target="rbfPJ4H-Tg4PSfFwz5Jx-15">
          <mxGeometry relative="1" as="geometry" />
        </mxCell>
        <mxCell id="rbfPJ4H-Tg4PSfFwz5Jx-13" value="Is tries 3?" style="rhombus;whiteSpace=wrap;html=1;strokeWidth=2;" vertex="1" parent="1">
          <mxGeometry x="360" y="520" width="120" height="40" as="geometry" />
        </mxCell>
        <mxCell id="rbfPJ4H-Tg4PSfFwz5Jx-15" value="Lock out" style="shape=parallelogram;perimeter=parallelogramPerimeter;whiteSpace=wrap;html=1;fixedSize=1;strokeWidth=2;" vertex="1" parent="1">
          <mxGeometry x="200" y="520" width="120" height="40" as="geometry" />
        </mxCell>
        <mxCell id="rbfPJ4H-Tg4PSfFwz5Jx-17" value="" style="endArrow=classic;html=1;rounded=0;entryX=1;entryY=0.5;entryDx=0;entryDy=0;exitX=1;exitY=0.5;exitDx=0;exitDy=0;" edge="1" parent="1" source="rbfPJ4H-Tg4PSfFwz5Jx-13" target="rbfPJ4H-Tg4PSfFwz5Jx-4">
          <mxGeometry width="50" height="50" relative="1" as="geometry">
            <mxPoint x="490" y="540" as="sourcePoint" />
            <mxPoint x="520" y="350" as="targetPoint" />
            <Array as="points">
              <mxPoint x="520" y="540" />
              <mxPoint x="520" y="360" />
            </Array>
          </mxGeometry>
        </mxCell>
        <mxCell id="rbfPJ4H-Tg4PSfFwz5Jx-18" value="tries ← 0" style="shape=parallelogram;perimeter=parallelogramPerimeter;whiteSpace=wrap;html=1;fixedSize=1;strokeWidth=2;" vertex="1" parent="1">
          <mxGeometry x="360" y="120" width="120" height="40" as="geometry" />
        </mxCell>
        <mxCell id="rbfPJ4H-Tg4PSfFwz5Jx-20" value="" style="edgeStyle=orthogonalEdgeStyle;rounded=0;orthogonalLoop=1;jettySize=auto;html=1;fontFamily=Helvetica;fontSize=12;fontColor=default;" edge="1" parent="1" source="rbfPJ4H-Tg4PSfFwz5Jx-19" target="rbfPJ4H-Tg4PSfFwz5Jx-18">
          <mxGeometry relative="1" as="geometry" />
        </mxCell>
        <mxCell id="rbfPJ4H-Tg4PSfFwz5Jx-19" value="Start" style="strokeWidth=2;html=1;shape=mxgraph.flowchart.terminator;whiteSpace=wrap;strokeColor=default;align=center;verticalAlign=middle;fontFamily=Helvetica;fontSize=12;fontColor=default;fillColor=default;" vertex="1" parent="1">
          <mxGeometry x="360" y="40" width="120" height="40" as="geometry" />
        </mxCell>
      </root>
    </mxGraphModel>
  </diagram>
</mxfile>
